<?xml version="1.0" encoding="iso-8859-1"?>
<!-- Generator: Adobe Illustrator 18.1.1, SVG Export Plug-In . SVG Version: 6.00 Build 0)  -->
<svg version="1.1" id="&#x56FE;&#x5C42;_1" xmlns="http://www.w3.org/2000/svg" xmlns:xlink="http://www.w3.org/1999/xlink" x="0px"
	 y="0px" viewBox="0 0 258.667 58" style="enable-background:new 0 0 258.667 58;" xml:space="preserve">
<g>
	<g>
		<path style="fill:#555555;" d="M61.163,30.089c0.726-6.3,3.543-8.499,10.161-8.499c6.361,0,10.033,1.71,10.033,7.327v14.018
			c0,1.856,0,2.979,1.451,2.979c0.641,0,1.281-0.147,1.921-0.391v1.954c-0.598,0.244-1.409,0.391-2.391,0.391
			c-2.69,0-2.69-2.149-2.69-5.47h-0.086c-2.433,5.129-7.557,5.763-10.417,5.763c-1.878,0-8.966,0-8.966-7.619
			c0-5.129,3.8-6.887,8.24-7.18l7.642-0.586c2.263-0.195,3.331-0.488,3.331-3.566c0-3.37-1.665-5.666-8.112-5.666
			c-5.764,0-7.557,2.052-8.155,6.545H61.163z M79.394,33.411h-0.086c-0.47,0.586-1.623,1.172-3.501,1.319l-7.387,0.585
			c-3.671,0.293-6.276,1.466-6.276,5.227c0,5.08,4.483,5.666,7.13,5.666c4.355,0,10.119-2.247,10.119-8.206V33.411z"/>
		<path style="fill:#555555;" d="M105.737,29.699c-0.299-4.152-2.605-6.155-8.283-6.155c-5.379,0-7.13,2.393-7.13,4.982
			c0,2.735,1.793,3.859,4.397,4.249l6.96,1.075c4.099,0.635,6.874,2.344,6.874,6.838c0,6.789-6.746,7.473-10.461,7.473
			c-6.02,0-10.375-2.344-10.674-8.596h1.964c0.256,2.588,0.726,6.643,9.222,6.643c5.764,0,7.984-1.954,7.984-5.519
			c0-2.882-1.836-4.152-4.398-4.542l-7.685-1.172c-2.689-0.391-6.148-1.856-6.148-6.301c0-2.833,1.75-7.082,9.179-7.082
			c8.112,0,9.906,4.201,10.161,8.108H105.737z"/>
		<path style="fill:#555555;" d="M111.032,22.372h2.22l9.82,22.517l9.008-22.517h2.22l-12.04,29.404
			c-1.11,2.686-2.22,4.591-5.636,4.591h-2.732v-1.954h2.348c2.519,0,3.074-0.635,4.74-4.493l1.11-2.54L111.032,22.372z"/>
	</g>
	<g>
		<path style="fill:#555555;" d="M139.631,47.38V12.32h7.322v28.739h17.434v6.321H139.631z"/>
		<path style="fill:#555555;" d="M167.978,18.259v-6.344h6.773v6.344H167.978z M167.978,47.38V21.384h6.773V47.38H167.978z"/>
		<path style="fill:#555555;" d="M203.289,47.38h-6.845V31.543c0-1.844-0.37-3.164-1.109-3.959
			c-0.739-0.795-1.832-1.193-3.279-1.193c-1.797,0-3.148,0.609-4.054,1.825c-0.906,1.216-1.359,2.913-1.359,5.092V47.38h-6.774
			V21.384h6.559v3.839c0.89-1.542,1.956-2.695,3.196-3.458c1.24-0.763,2.814-1.145,4.723-1.145c2.782,0,4.968,0.787,6.559,2.361
			c1.59,1.574,2.385,3.863,2.385,6.869V47.38z"/>
		<path style="fill:#555555;" d="M208.073,47.38V12.273h6.773v19.08l8.491-9.969h8.419l-9.111,9.969l9.445,16.027h-8.204
			l-6.201-11.138l-2.838,2.934v8.204H208.073z"/>
		<path style="fill:#555555;" d="M248.678,29.254c-0.128-0.874-0.326-1.518-0.596-1.932c-0.35-0.54-0.811-0.93-1.383-1.168
			c-0.747-0.302-1.574-0.454-2.48-0.454c-1.543,0-2.635,0.247-3.279,0.739c-0.644,0.493-0.966,1.058-0.966,1.693
			c0,0.35,0.08,0.664,0.238,0.943c0.159,0.278,0.437,0.529,0.835,0.751c0.413,0.238,1.168,0.501,2.265,0.786l4.746,1.169
			c1.59,0.414,2.584,0.692,2.981,0.835c0.986,0.334,1.809,0.724,2.469,1.169c0.659,0.446,1.184,0.927,1.574,1.443
			c0.39,0.517,0.692,1.109,0.906,1.777c0.215,0.668,0.322,1.399,0.322,2.195c0,1.415-0.266,2.703-0.799,3.863
			c-0.533,1.161-1.296,2.111-2.289,2.85c-0.994,0.739-2.227,1.3-3.697,1.681c-1.471,0.382-3.192,0.573-5.163,0.573
			c-2.02,0-3.78-0.215-5.283-0.644c-1.503-0.429-2.719-1.053-3.649-1.872c-0.93-0.819-1.626-1.73-2.087-2.731
			c-0.462-1.002-0.787-2.282-0.978-3.84h7.036c0,0.827,0.135,1.487,0.405,1.98c0.382,0.684,0.966,1.193,1.753,1.527
			c0.787,0.334,1.777,0.501,2.969,0.501c1.765,0,3.053-0.294,3.864-0.882c0.588-0.445,0.882-1.033,0.882-1.765
			c0-0.556-0.219-1.033-0.656-1.431c-0.437-0.397-1.53-0.803-3.279-1.216c-3.863-0.89-6.352-1.558-7.465-2.003
			c-1.559-0.635-2.719-1.494-3.482-2.576c-0.763-1.081-1.145-2.401-1.145-3.959c0-1.59,0.417-3.061,1.252-4.412
			c0.835-1.351,2.075-2.392,3.721-3.124c1.646-0.731,3.685-1.097,6.117-1.097c1.399,0,2.731,0.139,3.995,0.417
			c1.264,0.278,2.321,0.688,3.172,1.228c0.85,0.541,1.55,1.165,2.099,1.872c0.549,0.707,0.954,1.431,1.216,2.17
			c0.262,0.739,0.465,1.721,0.608,2.945H248.678z"/>
	</g>
	<path style="fill:#1886C9;" d="M53.042,47.936c0,3.058-2.479,5.538-5.537,5.538H7.815c-3.058,0-5.538-2.48-5.538-5.538V8.246
		c0-3.058,2.48-5.538,5.538-5.538h39.69c3.059,0,5.537,2.48,5.537,5.538V47.936z"/>
	<path style="opacity:0.5;fill:#389FDA;" d="M53.042,47.936c0,3.058-2.479,5.538-5.537,5.538H7.815c-3.058,0-5.538-2.48-5.538-5.538
		V8.246c0-3.058,2.48-5.538,5.538-5.538h39.69c3.059,0,5.537,2.48,5.537,5.538V47.936z"/>
	<g>
		<path style="fill:#FFFFFF;" d="M14.233,45.62V10.562h26.02v6.034H21.555v7.775H38.75v6.058H21.555v9.135h19.533v6.057H14.233z"/>
	</g>
</g>
</svg>
